<svg width="484" height="450" viewBox="0 0 484 450" fill="none" xmlns="http://www.w3.org/2000/svg">
<g clip-path="url(#clip0)">
<rect width="484" height="450" fill="white"/>
<path d="M474.547 0H92.6406C87.4206 0 83.1875 3.93486 83.1875 8.78906V47.4609H51.0469C45.8269 47.4609 41.5938 51.3967 41.5938 56.25V103.711H9.45312C4.23216 103.711 0 107.647 0 112.5V402.539C0 428.708 22.9002 450 51.0469 450H432.953C461.1 450 484 428.708 484 402.539V8.78906C484 3.93486 479.767 0 474.547 0ZM465.094 402.539C465.094 419.017 450.676 432.422 432.953 432.422H90.6668C97.8039 424.257 102.094 413.857 102.094 402.539V283.889C102.094 279.036 97.8606 275.1 92.6406 275.1C87.4206 275.1 83.1875 279.036 83.1875 283.889V402.539C83.1875 419.017 68.7696 432.422 51.0469 432.422C33.3242 432.422 18.9062 419.017 18.9062 402.539V121.289H41.5938V393.75C41.5938 398.603 45.8269 402.539 51.0469 402.539C56.2669 402.539 60.5 398.603 60.5 393.75V65.0391H83.1875V204.788C83.1875 209.642 87.4206 213.577 92.6406 213.577C97.8606 213.577 102.094 209.642 102.094 204.788V17.5781H465.094V402.539Z" fill="black"/>
<path d="M138.016 138.867H429.172C434.392 138.867 438.625 134.932 438.625 130.078V66.7969C438.625 61.9436 434.392 58.0078 429.172 58.0078H138.016C132.795 58.0078 128.562 61.9436 128.562 66.7969V130.078C128.562 134.932 132.795 138.867 138.016 138.867ZM147.469 75.5859H419.719V121.289H147.469V75.5859Z" fill="black"/>
<path d="M138.016 349.805H283.594C288.814 349.805 293.047 345.869 293.047 341.016V172.266C293.047 167.411 288.814 163.477 283.594 163.477H138.016C132.795 163.477 128.562 167.411 128.562 172.266V341.016C128.562 345.869 132.795 349.805 138.016 349.805ZM147.469 181.055H274.141V332.227H147.469V181.055Z" fill="black"/>
<path d="M429.172 163.477H328.969C323.749 163.477 319.516 167.411 319.516 172.266C319.516 177.12 323.749 181.055 328.969 181.055H429.172C434.392 181.055 438.625 177.12 438.625 172.266C438.625 167.411 434.392 163.477 429.172 163.477Z" fill="black"/>
<path d="M429.172 205.664H328.969C323.749 205.664 319.516 209.599 319.516 214.453C319.516 219.307 323.749 223.242 328.969 223.242H429.172C434.392 223.242 438.625 219.307 438.625 214.453C438.625 209.599 434.392 205.664 429.172 205.664Z" fill="black"/>
<path d="M429.172 247.852H328.969C323.749 247.852 319.516 251.787 319.516 256.641C319.516 261.494 323.749 265.43 328.969 265.43H429.172C434.392 265.43 438.625 261.494 438.625 256.641C438.625 251.787 434.392 247.852 429.172 247.852Z" fill="black"/>
<path d="M429.172 290.039H328.969C323.749 290.039 319.516 293.975 319.516 298.828C319.516 303.681 323.749 307.617 328.969 307.617H429.172C434.392 307.617 438.625 303.681 438.625 298.828C438.625 293.975 434.392 290.039 429.172 290.039Z" fill="black"/>
<path d="M429.172 332.227H328.969C323.749 332.227 319.516 336.162 319.516 341.016C319.516 345.869 323.749 349.805 328.969 349.805H429.172C434.392 349.805 438.625 345.869 438.625 341.016C438.625 336.162 434.392 332.227 429.172 332.227Z" fill="black"/>
<path d="M138.016 391.992H429.172C434.392 391.992 438.625 388.056 438.625 383.203C438.625 378.35 434.392 374.414 429.172 374.414H138.016C132.795 374.414 128.562 378.35 128.562 383.203C128.562 388.056 132.795 391.992 138.016 391.992Z" fill="black"/>
<path d="M93.1133 235.547C90.6271 235.547 88.1882 236.486 86.4299 238.122C84.6716 239.757 83.6602 242.024 83.6602 244.336C83.6602 246.656 84.6707 248.915 86.4299 250.549C88.1882 252.192 90.6271 253.125 93.1133 253.125C95.5995 253.125 98.0384 252.193 99.7957 250.549C101.554 248.915 102.566 246.647 102.566 244.336C102.566 242.024 101.555 239.757 99.7957 238.122C98.0384 236.486 95.5995 235.547 93.1133 235.547Z" fill="black"/>
<rect x="144.644" y="74.6342" width="275.936" height="47.1951" fill="#F26969"/>
<rect x="147.982" y="181.098" width="125.729" height="151.463" fill="#EB1E1E"/>
</g>
<defs>
<clipPath id="clip0">
<rect width="484" height="450" fill="white"/>
</clipPath>
</defs>
</svg>
